<?xml version="1.0" encoding="utf-8" ?>
<svg baseProfile="full" height="100%" version="1.1" viewBox="-600 -400 1750 840" width="100%" xmlns="http://www.w3.org/2000/svg" xmlns:ev="http://www.w3.org/2001/xml-events" xmlns:xlink="http://www.w3.org/1999/xlink"><defs><pattern height="8" id="diagonalHatch" patternTransform="rotate(45 2 2)" patternUnits="userSpaceOnUse" width="8"><path d="M 0,1 l 8,0" stroke="#000000" stroke-width="2.5" /></pattern><marker id="id4" markerHeight="20" markerWidth="30" orient="auto" refX="0" refY="3"><path d=" M0,3 L8,8 L5,3 L8,0 L0,3" fill="black" /></marker><marker id="id5" markerHeight="30" markerWidth="30" orient="auto" refX="8" refY="3"><path d=" M0,0 L3,3 L0,8 L8,3 L0,0" fill="black" /></marker><marker id="id6" markerHeight="20" markerWidth="30" orient="auto" refX="0" refY="3"><path d=" M0,3 L8,8 L5,3 L8,0 L0,3" fill="black" /></marker></defs><polyline fill="none" points="0,0 750,0 750.0,40.0 0.0,40.0 0,0" stroke="blue" stroke-width="2.5" /><line stroke="blue" stroke-linecap="square" stroke-width="2.5" x1="0.0" x2="750.0" y1="36.0" y2="36.0" /><line stroke="blue" stroke-linecap="square" stroke-width="2.5" x1="750.0" x2="750.0" y1="40.0" y2="80.0" /><line stroke="blue" stroke-linecap="square" stroke-width="2.5" x1="100.0" x2="100.0" y1="44.0" y2="80.0" /><line stroke="blue" stroke-linecap="square" stroke-width="2.5" x1="100.0" x2="750.0" y1="44.0" y2="44.0" /><line stroke="blue" stroke-linecap="square" stroke-width="2.5" x1="100.0" x2="750.0" y1="80.0" y2="80.0" /><line stroke="blue" stroke-linecap="square" stroke-width="2.5" x1="100.0" x2="100.0" y1="-40.0" y2="36.0" /><line stroke="blue" stroke-linecap="square" stroke-width="2.5" x1="100.0" x2="100.0" y1="80.0" y2="120.0" /><line stroke="blue" stroke-linecap="square" stroke-width="2.5" x1="100.0" x2="-100.0" y1="-40.0" y2="-40.0" /><line stroke="blue" stroke-linecap="square" stroke-width="2.5" x1="-100.0" x2="100.0" y1="120.0" y2="120.0" /><line stroke="blue" stroke-linecap="square" stroke-width="2.5" x1="-100.0" x2="-100.0" y1="120.0" y2="-40.0" /><line stroke="red" stroke-dasharray="5 5" stroke-linecap="square" stroke-width="2.5" x1="0.0" x2="0.0" y1="40.0" y2="80.0" /><line stroke="red" stroke-dasharray="5 5" stroke-linecap="square" stroke-width="2.5" x1="0.0" x2="100.0" y1="80.0" y2="80.0" /><rect fill="url(#diagonalHatch)" height="8" stroke="white" stroke-width="1.0" width="100.0" x="0" y="-8" /><rect fill="url(#diagonalHatch)" height="40.0" stroke="white" stroke-width="1.0" width="8" x="-8" y="0" /><rect fill="url(#diagonalHatch)" height="8" stroke="white" stroke-width="1.0" width="100.0" x="0.0" y="40.0" /><polyline fill="none" marker-start="url(#id4)" points="0,0 -173.205080757,-100.0 -299.205080757,-100.0" stroke="black" stroke-width="2.5" /><text fill="black" font-family="sans-serif" font-size="28" x="-292.905080757" y="-118.0">40 40 x 4</text><text fill="black" font-family="sans-serif" font-size="28" x="-305.505080757" y="-67.0"> </text><line stroke="#D8D8D8" stroke-linecap="square" stroke-opacity="0.7" stroke-width="2.5" x1="0.0" x2="0.0" y1="40.0" y2="140.0" /><line stroke="#D8D8D8" stroke-linecap="square" stroke-opacity="0.7" stroke-width="2.5" x1="750.0" x2="750.0" y1="40.0" y2="140.0" /><line marker-end="url(#id5)" marker-start="url(#id6)" stroke="black" stroke-linecap="square" stroke-width="2.5" x1="750.0" x2="0.0" y1="140.0" y2="140.0" /><text fill="black" font-family="sans-serif" font-size="28" x="330.0" y="85.0">2000.0</text><line stroke="black" stroke-linecap="square" stroke-opacity="1.0" stroke-width="2.5" x1="750.0" x2="750.0" y1="130.0" y2="150.0" /><line stroke="black" stroke-linecap="square" stroke-opacity="1.0" stroke-width="2.5" x1="0.0" x2="0.0" y1="130.0" y2="150.0" /><text fill="black" font-family="sans-serif" font-size="35" x="75.0" y="290.0">Front view (Sec C-C) </text><text fill="black" font-family="sans-serif" font-size="35" x="75.0" y="330.0">(All dimensions are in "mm")</text></svg>