<?xml version="1.0" encoding="utf-8" ?>
<svg baseProfile="full" height="100%" version="1.1" viewBox="-500 -200 2000 700" width="100%" xmlns="http://www.w3.org/2000/svg" xmlns:ev="http://www.w3.org/2001/xml-events" xmlns:xlink="http://www.w3.org/1999/xlink"><defs><pattern height="6" id="diagonalHatch" patternTransform="rotate(45 2 2)" patternUnits="userSpaceOnUse" width="6"><path d="M 0,1 l 6,0" stroke="#000000" stroke-width="2.5" /></pattern><marker id="id4" markerHeight="20" markerWidth="30" orient="auto" refX="0" refY="3"><path d=" M0,3 L8,6 L5,3 L8,0 L0,3" fill="black" /></marker></defs><polyline fill="none" points="0,0 1000,0 1000.0,300.0 0.0,300.0 0,0" stroke="blue" stroke-width="2.5" /><polyline fill="none" points="150.0,0.0 150.0,-150.0 150.0,450.0 -150.0,450.0 -150.0,-150.0 150.0,0.0" stroke="blue" stroke-width="2.5" /><line stroke="blue" stroke-linecap="square" stroke-width="2.5" x1="0.0" x2="1000.0" y1="11.6" y2="11.6" /><line stroke="blue" stroke-linecap="square" stroke-width="2.5" x1="0.0" x2="1000.0" y1="288.4" y2="288.4" /><line stroke="blue" stroke-linecap="square" stroke-width="2.5" x1="150.0" x2="150.0" y1="-150.0" y2="0.0" /><line stroke="blue" stroke-linecap="square" stroke-width="2.5" x1="150.0" x2="150.0" y1="300.0" y2="450.0" /><line stroke="blue" stroke-linecap="square" stroke-width="2.5" x1="150.0" x2="-150.0" y1="450.0" y2="450.0" /><line stroke="blue" stroke-linecap="square" stroke-width="2.5" x1="-150.0" x2="-150.0" y1="450.0" y2="-150.0" /><line stroke="blue" stroke-linecap="square" stroke-width="2.5" x1="-150.0" x2="150.0" y1="-150.0" y2="-150.0" /><rect fill="url(#diagonalHatch)" height="12" stroke="white" stroke-width="1.0" width="150.0" x="0" y="-12" /><rect fill="url(#diagonalHatch)" height="12" stroke="white" stroke-width="1.0" width="150.0" x="0.0" y="300.0" /><rect fill="url(#diagonalHatch)" height="300.0" stroke="white" stroke-width="1.0" width="12" x="0" y="0" /><polyline fill="none" marker-start="url(#id4)" points="0,0 -173.205080757,-100.0 -269.205080757,-100.0" stroke="black" stroke-width="2.5" /><text fill="black" font-family="sans-serif" font-size="35" x="-264.405080757" y="-118.0">LC 300</text><text fill="black" font-family="sans-serif" font-size="35" x="-274.005080757" y="-67.0"> </text><text fill="black" font-family="sans-serif" font-size="35" x="400.0" y="400.0">Front view (Sec C-C) </text><text fill="black" font-family="sans-serif" font-size="35" x="400.0" y="440.0">(All dimensions are in "mm")</text></svg>