<?xml version="1.0" encoding="utf-8" ?>
<svg baseProfile="full" height="100%" version="1.1" viewBox="-600 -400 2000 840" width="100%" xmlns="http://www.w3.org/2000/svg" xmlns:ev="http://www.w3.org/2001/xml-events" xmlns:xlink="http://www.w3.org/1999/xlink"><defs><pattern height="8" id="diagonalHatch" patternTransform="rotate(45 2 2)" patternUnits="userSpaceOnUse" width="8"><path d="M 0,1 l 8,0" stroke="#000000" stroke-width="2.5" /></pattern><marker id="id2" markerHeight="20" markerWidth="30" orient="auto" refX="0" refY="3"><path d=" M0,3 L8,8 L5,3 L8,0 L0,3" fill="black" /></marker></defs><polyline fill="none" points="0,0 1000,0 1000.0,40.0 0.0,40.0 0,0" stroke="blue" stroke-width="2.5" /><line stroke="blue" stroke-linecap="square" stroke-width="2.5" x1="-200.0" x2="200.0" y1="-60.0" y2="-60.0" /><line stroke="blue" stroke-linecap="square" stroke-width="2.5" x1="-200.0" x2="-200.0" y1="-60.0" y2="100.0" /><line stroke="blue" stroke-linecap="square" stroke-width="2.5" x1="-200.0" x2="200.0" y1="100.0" y2="100.0" /><line stroke="blue" stroke-linecap="square" stroke-width="2.5" x1="200.0" x2="200.0" y1="100.0" y2="40.0" /><line stroke="blue" stroke-linecap="square" stroke-width="2.5" x1="200.0" x2="200.0" y1="-60.0" y2="0.0" /><line stroke="blue" stroke-linecap="square" stroke-width="2.5" x1="0.0" x2="1000.0" y1="36.0" y2="36.0" /><rect fill="url(#diagonalHatch)" height="8" stroke="white" stroke-width="1.0" width="200.0" x="0" y="-8" /><rect fill="url(#diagonalHatch)" height="8" stroke="white" stroke-width="1.0" width="200.0" x="0.0" y="40.0" /><rect fill="url(#diagonalHatch)" height="40.0" stroke="white" stroke-width="1.0" width="8" x="-8" y="0" /><polyline fill="none" marker-start="url(#id2)" points="0,0 -173.205080757,-100.0 -317.205080757,-100.0" stroke="black" stroke-width="2.5" /><text fill="black" font-family="sans-serif" font-size="35" x="-310.005080757" y="-118.0">40 40 x 4</text><text fill="black" font-family="sans-serif" font-size="35" x="-324.405080757" y="-67.0"> </text><text fill="black" font-family="sans-serif" font-size="35" x="200.0" y="190.0">Front view (Sec C-C) </text><text fill="black" font-family="sans-serif" font-size="35" x="200.0" y="230.0">(All dimensions are in "mm")</text></svg>