<?xml version="1.0" encoding="utf-8" ?>
<svg baseProfile="full" height="100%" version="1.1" viewBox="-600 -400 1750 860" width="100%" xmlns="http://www.w3.org/2000/svg" xmlns:ev="http://www.w3.org/2001/xml-events" xmlns:xlink="http://www.w3.org/1999/xlink"><defs><pattern height="8" id="diagonalHatch" patternTransform="rotate(45 2 2)" patternUnits="userSpaceOnUse" width="8"><path d="M 0,1 l 8,0" stroke="#000000" stroke-width="2.5" /></pattern><marker id="id316" markerHeight="20" markerWidth="30" orient="auto" refX="0" refY="3"><path d=" M0,3 L8,8 L5,3 L8,0 L0,3" fill="black" /></marker><marker id="id317" markerHeight="10" markerWidth="10" orient="auto" refX="0" refY="5"><path d="M 0 0 L 10 5 L 0 10 z" fill="blue" stroke="black" /></marker><marker id="id318" markerHeight="10" markerWidth="10" orient="auto" refX="0" refY="5"><path d="M 0 0 L 10 5 L 0 10 z" fill="blue" stroke="black" /></marker><marker id="id319" markerHeight="30" markerWidth="30" orient="auto" refX="8" refY="3"><path d=" M0,0 L3,3 L0,8 L8,3 L0,0" fill="black" /></marker><marker id="id320" markerHeight="20" markerWidth="30" orient="auto" refX="0" refY="3"><path d=" M0,3 L8,8 L5,3 L8,0 L0,3" fill="black" /></marker></defs><polyline fill="none" points="0,0 750,0 750.0,60.0 0.0,60.0 0,0" stroke="blue" stroke-width="2.5" /><line stroke="blue" stroke-linecap="square" stroke-width="2.5" x1="0.0" x2="750.0" y1="54.0" y2="54.0" /><line stroke="blue" stroke-linecap="square" stroke-width="2.5" x1="750.0" x2="750.0" y1="60.0" y2="100.0" /><line stroke="blue" stroke-linecap="square" stroke-width="2.5" x1="100.0" x2="100.0" y1="66.0" y2="100.0" /><line stroke="blue" stroke-linecap="square" stroke-width="2.5" x1="100.0" x2="750.0" y1="66.0" y2="66.0" /><line stroke="blue" stroke-linecap="square" stroke-width="2.5" x1="100.0" x2="750.0" y1="100.0" y2="100.0" /><line stroke="blue" stroke-linecap="square" stroke-width="2.5" x1="100.0" x2="100.0" y1="-60.0" y2="54.0" /><line stroke="blue" stroke-linecap="square" stroke-width="2.5" x1="100.0" x2="100.0" y1="100.0" y2="180.0" /><line stroke="blue" stroke-linecap="square" stroke-width="2.5" x1="100.0" x2="-100.0" y1="-60.0" y2="-60.0" /><line stroke="blue" stroke-linecap="square" stroke-width="2.5" x1="-100.0" x2="100.0" y1="180.0" y2="180.0" /><line stroke="blue" stroke-linecap="square" stroke-width="2.5" x1="-100.0" x2="-100.0" y1="180.0" y2="-60.0" /><line stroke="red" stroke-dasharray="5 5" stroke-linecap="square" stroke-width="2.5" x1="0.0" x2="0.0" y1="60.0" y2="100.0" /><line stroke="red" stroke-dasharray="5 5" stroke-linecap="square" stroke-width="2.5" x1="0.0" x2="100.0" y1="100.0" y2="100.0" /><rect fill="url(#diagonalHatch)" height="8" stroke="white" stroke-width="1.0" width="100.0" x="0" y="-8" /><rect fill="url(#diagonalHatch)" height="60.0" stroke="white" stroke-width="1.0" width="8" x="-8" y="0" /><rect fill="url(#diagonalHatch)" height="8" stroke="white" stroke-width="1.0" width="100.0" x="0.0" y="60.0" /><polyline fill="none" marker-start="url(#id316)" points="0,0 -173.205080757,-100.0 -299.205080757,-100.0" stroke="black" stroke-width="2.5" /><text fill="black" font-family="sans-serif" font-size="28" x="-292.905080757" y="-118.0">60 40 X 6</text><text fill="black" font-family="sans-serif" font-size="28" x="-305.505080757" y="-67.0"> </text><line marker-end="url(#id317)" stroke="black" stroke-linecap="square" stroke-width="2.5" x1="-200" x2="-200" y1="-300" y2="-250" /><text fill="black" font-family="sans-serif" font-size="40" x="-220" y="-175">A</text><line marker-end="url(#id318)" stroke="black" stroke-linecap="square" stroke-width="2.5" x1="950" x2="950" y1="-300" y2="-250" /><text fill="black" font-family="sans-serif" font-size="40" x="930" y="-175">A</text><line stroke="black" stroke-linecap="square" stroke-width="1.5" x1="-200" x2="950" y1="-300" y2="-300" /><line stroke="#D8D8D8" stroke-linecap="square" stroke-opacity="0.7" stroke-width="2.5" x1="0.0" x2="0.0" y1="60.0" y2="210.0" /><line stroke="#D8D8D8" stroke-linecap="square" stroke-opacity="0.7" stroke-width="2.5" x1="750.0" x2="750.0" y1="60.0" y2="210.0" /><line marker-end="url(#id319)" marker-start="url(#id320)" stroke="black" stroke-linecap="square" stroke-width="2.5" x1="750.0" x2="0.0" y1="210.0" y2="210.0" /><text fill="black" font-family="sans-serif" font-size="28" x="327.0" y="157.0">2000.0</text><line stroke="black" stroke-linecap="square" stroke-opacity="1.0" stroke-width="2.5" x1="750.0" x2="750.0" y1="200.0" y2="220.0" /><line stroke="black" stroke-linecap="square" stroke-opacity="1.0" stroke-width="2.5" x1="0.0" x2="0.0" y1="200.0" y2="220.0" /><text fill="black" font-family="sans-serif" font-size="35" x="75.0" y="310.0">Front view (Sec C-C) </text><text fill="black" font-family="sans-serif" font-size="35" x="75.0" y="350.0">(All dimensions are in "mm")</text></svg>