<?xml version="1.0" encoding="utf-8" ?>
<svg baseProfile="full" height="100%" version="1.1" viewBox="-375 -250 810 620" width="100%" xmlns="http://www.w3.org/2000/svg" xmlns:ev="http://www.w3.org/2001/xml-events" xmlns:xlink="http://www.w3.org/1999/xlink"><defs><marker id="id321" markerHeight="20" markerWidth="30" orient="auto" refX="0" refY="3"><path d=" M0,3 L8,8 L5,3 L8,0 L0,3" fill="black" /></marker><marker id="id322" markerHeight="30" markerWidth="30" orient="auto" refX="8" refY="3"><path d=" M0,0 L3,3 L0,8 L8,3 L0,0" fill="black" /></marker><marker id="id323" markerHeight="20" markerWidth="30" orient="auto" refX="0" refY="3"><path d=" M0,3 L8,8 L5,3 L8,0 L0,3" fill="black" /></marker></defs><polyline fill="none" points="0,0 0.0,60.0 40.0,60.0 40.0,54.0 6.0,54.0 6.0,0.0 0,0" stroke="blue" stroke-width="1" /><polyline fill="none" points="-6.0,60.0 -6.0,120.0 -12.0,120.0 -12.0,66.0 -46.0,66.0 -46.0,60.0 -6.0,60.0" stroke="blue" stroke-width="1" /><line stroke="blue" stroke-linecap="square" stroke-width="1" x1="0.0" x2="0" y1="-90.0" y2="0" /><line stroke="blue" stroke-linecap="square" stroke-width="1" x1="0.0" x2="0.0" y1="60.0" y2="210.0" /><line stroke="blue" stroke-linecap="square" stroke-width="1" x1="-6.0" x2="0.0" y1="210.0" y2="210.0" /><line stroke="blue" stroke-linecap="square" stroke-width="1" x1="-6.0" x2="-6.0" y1="120.0" y2="210.0" /><line stroke="blue" stroke-linecap="square" stroke-width="1" x1="-6.0" x2="-6.0" y1="60.0" y2="-90.0" /><line stroke="blue" stroke-linecap="square" stroke-width="1" x1="0.0" x2="-6.0" y1="-90.0" y2="-90.0" /><polyline fill="none" marker-start="url(#id321)" points="0,0 -57.735026919,-100.0 -147.735026919,-100.0" stroke="black" stroke-width="1" /><text fill="black" font-family="sans-serif" font-size="15" x="-143.235026919" y="-118.0">60 40 X 6</text><text fill="black" font-family="sans-serif" font-size="15" x="-152.235026919" y="-67.0"> </text><line stroke="#D8D8D8" stroke-linecap="square" stroke-opacity="0.7" stroke-width="2.5" x1="0" x2="-100" y1="0" y2="0" /><line stroke="#D8D8D8" stroke-linecap="square" stroke-opacity="0.7" stroke-width="2.5" x1="-6.0" x2="-106.0" y1="120.0" y2="120.0" /><line marker-end="url(#id322)" marker-start="url(#id323)" stroke="black" stroke-linecap="square" stroke-width="1" x1="-106.0" x2="-106.0" y1="120.0" y2="0.0" /><text fill="black" font-family="sans-serif" font-size="15" x="-156.0" y="60.0">120.0</text><line stroke="black" stroke-linecap="square" stroke-opacity="1.0" stroke-width="1" x1="-111.0" x2="-101.0" y1="120.0" y2="120.0" /><line stroke="black" stroke-linecap="square" stroke-opacity="1.0" stroke-width="1" x1="-111.0" x2="-101.0" y1="0.0" y2="0.0" /><text fill="black" font-family="sans-serif" font-size="15" x="-28.0" y="260.0">Side view (Sec B-B) </text><text fill="black" font-family="sans-serif" font-size="15" x="-28.0" y="300.0">(All dimensions are in "mm")</text></svg>