<?xml version="1.0" encoding="utf-8" ?>
<svg baseProfile="full" height="100%" version="1.1" viewBox="-600 -400 1750 860" width="100%" xmlns="http://www.w3.org/2000/svg" xmlns:ev="http://www.w3.org/2001/xml-events" xmlns:xlink="http://www.w3.org/1999/xlink"><defs><pattern height="8" id="diagonalHatch" patternTransform="rotate(45 2 2)" patternUnits="userSpaceOnUse" width="8"><path d="M 0,1 l 8,0" stroke="#000000" stroke-width="2.5" /></pattern><marker id="id334" markerHeight="20" markerWidth="30" orient="auto" refX="0" refY="3"><path d=" M0,3 L8,8 L5,3 L8,0 L0,3" fill="black" /></marker><marker id="id335" markerHeight="30" markerWidth="30" orient="auto" refX="8" refY="3"><path d=" M0,0 L3,3 L0,8 L8,3 L0,0" fill="black" /></marker><marker id="id336" markerHeight="20" markerWidth="30" orient="auto" refX="0" refY="3"><path d=" M0,3 L8,8 L5,3 L8,0 L0,3" fill="black" /></marker><marker id="id337" markerHeight="10" markerWidth="10" orient="auto" refX="0" refY="5"><path d="M 0 0 L 10 5 L 0 10 z" fill="blue" stroke="black" /></marker><marker id="id338" markerHeight="10" markerWidth="10" orient="auto" refX="0" refY="5"><path d="M 0 0 L 10 5 L 0 10 z" fill="blue" stroke="black" /></marker><marker id="id339" markerHeight="10" markerWidth="10" orient="auto" refX="0" refY="5"><path d="M 0 0 L 10 5 L 0 10 z" fill="blue" stroke="black" /></marker><marker id="id340" markerHeight="10" markerWidth="10" orient="auto" refX="0" refY="5"><path d="M 0 0 L 10 5 L 0 10 z" fill="blue" stroke="black" /></marker></defs><polyline fill="none" points="0,0 750,0 750.0,60.0 0.0,60.0 0,0" stroke="blue" stroke-width="2.5" /><line stroke="blue" stroke-linecap="square" stroke-width="2.5" x1="0.0" x2="750.0" y1="6.0" y2="6.0" /><line stroke="blue" stroke-linecap="square" stroke-width="2.5" x1="100.0" x2="100.0" y1="-12.0" y2="0.0" /><line stroke="blue" stroke-linecap="square" stroke-width="2.5" x1="100.0" x2="-100.0" y1="-12.0" y2="-12.0" /><line stroke="blue" stroke-linecap="square" stroke-width="2.5" x1="-100.0" x2="-100.0" y1="0.0" y2="-12.0" /><line stroke="blue" stroke-linecap="square" stroke-width="2.5" x1="-100.0" x2="0" y1="0.0" y2="0" /><line stroke="blue" stroke-linecap="square" stroke-width="2.5" x1="0" x2="0.0" y1="-12" y2="-72.0" /><line stroke="blue" stroke-linecap="square" stroke-width="2.5" x1="0.0" x2="750.0" y1="-72.0" y2="-72.0" /><line stroke="blue" stroke-linecap="square" stroke-width="2.5" x1="750" x2="750.0" y1="-12" y2="-72.0" /><line stroke="blue" stroke-linecap="square" stroke-width="2.5" x1="750" x2="100.0" y1="-12" y2="-12.0" /><line stroke="blue" stroke-dasharray="5 5" stroke-linecap="square" stroke-width="2.5" x1="0.0" x2="750.0" y1="-18.0" y2="-18.0" /><rect fill="url(#diagonalHatch)" height="6.0" stroke="white" stroke-width="1.0" width="100.0" x="0" y="0" /><rect fill="url(#diagonalHatch)" height="6.0" stroke="white" stroke-width="1.0" width="100.0" x="0.0" y="-18.0" /><polyline fill="none" marker-start="url(#id334)" points="0,0 -57.735026919,-100.0 -183.735026919,-100.0" stroke="black" stroke-width="2.5" /><text fill="black" font-family="sans-serif" font-size="28" x="-177.435026919" y="-118.0">60 40 X 6</text><text fill="black" font-family="sans-serif" font-size="28" x="-190.035026919" y="-67.0"> </text><line stroke="#D8D8D8" stroke-linecap="square" stroke-opacity="0.7" stroke-width="2.5" x1="0" x2="0" y1="0" y2="-200" /><line stroke="#D8D8D8" stroke-linecap="square" stroke-opacity="0.7" stroke-width="2.5" x1="100.0" x2="100.0" y1="0.0" y2="-200.0" /><line marker-end="url(#id335)" marker-start="url(#id336)" stroke="black" stroke-linecap="square" stroke-width="2.5" x1="100.0" x2="0.0" y1="-200.0" y2="-200.0" /><text fill="black" font-family="sans-serif" font-size="28" x="10.0" y="-230.0">100.0</text><line stroke="black" stroke-linecap="square" stroke-opacity="1.0" stroke-width="2.5" x1="100.0" x2="100.0" y1="-190.0" y2="-210.0" /><line stroke="black" stroke-linecap="square" stroke-opacity="1.0" stroke-width="2.5" x1="0.0" x2="0.0" y1="-190.0" y2="-210.0" /><line marker-end="url(#id337)" stroke="black" stroke-linecap="square" stroke-width="2.5" x1="-100.0" x2="-100.0" y1="260.0" y2="210.0" /><text fill="black" font-family="sans-serif" font-size="40" x="-120.0" y="160.0">C</text><line marker-end="url(#id338)" stroke="black" stroke-linecap="square" stroke-width="2.5" x1="850.0" x2="850.0" y1="260.0" y2="210.0" /><text fill="black" font-family="sans-serif" font-size="40" x="830.0" y="160.0">C</text><line stroke="black" stroke-linecap="square" stroke-width="1.5" x1="-100.0" x2="850.0" y1="260.0" y2="260.0" /><line marker-end="url(#id339)" stroke="black" stroke-linecap="square" stroke-width="2.5" x1="1050" x2="1000" y1="-100" y2="-100" /><text fill="black" font-family="sans-serif" font-size="40" x="925" y="-80">B</text><line marker-end="url(#id340)" stroke="black" stroke-linecap="square" stroke-width="2.5" x1="1050.0" x2="1000.0" y1="160.0" y2="160.0" /><text fill="black" font-family="sans-serif" font-size="40" x="925.0" y="180.0">B</text><line stroke="black" stroke-linecap="square" stroke-width="1.5" x1="1050" x2="1050.0" y1="-100" y2="160.0" /><text fill="black" font-family="sans-serif" font-size="28" x="187.0" y="360.0">Top view (Sec A-A) </text><text fill="black" font-family="sans-serif" font-size="28" x="187.0" y="400.0">(All dimensions are in "mm")</text></svg>