<?xml version="1.0" encoding="utf-8" ?>
<svg baseProfile="full" height="100%" version="1.1" viewBox="-600 -400 2000 1107" width="100%" xmlns="http://www.w3.org/2000/svg" xmlns:ev="http://www.w3.org/2001/xml-events" xmlns:xlink="http://www.w3.org/1999/xlink"><defs><marker id="id2" markerHeight="20" markerWidth="30" orient="auto" refX="0" refY="3"><path d=" M0,3 L8,8 L5,3 L8,0 L0,3" fill="black" /></marker></defs><line stroke="blue" stroke-linecap="square" stroke-width="2.5" x1="0" x2="1000" y1="0" y2="0" /><line stroke="blue" stroke-linecap="square" stroke-width="2.5" x1="1000" x2="1000.0" y1="0" y2="305.3" /><line stroke="blue" stroke-linecap="square" stroke-width="2.5" x1="1000.0" x2="0.0" y1="305.3" y2="305.3" /><line stroke="blue" stroke-dasharray="5 5" stroke-linecap="square" stroke-width="2.5" x1="0.0" x2="1000.0" y1="147.7" y2="147.7" /><line stroke="blue" stroke-dasharray="5 5" stroke-linecap="square" stroke-width="2.5" x1="1000.0" x2="0.0" y1="157.6" y2="157.6" /><line stroke="blue" stroke-linecap="square" stroke-width="2.5" x1="0.0" x2="0" y1="27.65" y2="0" /><line stroke="blue" stroke-linecap="square" stroke-width="2.5" x1="0.0" x2="0.0" y1="305.3" y2="277.65" /><line stroke="blue" stroke-dasharray="5 5" stroke-linecap="square" stroke-width="2.5" x1="0.0" x2="0.0" y1="27.65" y2="277.65" /><line stroke="blue" stroke-linecap="square" stroke-width="2.5" x1="0.0" x2="100.0" y1="27.65" y2="27.65" /><line stroke="blue" stroke-linecap="square" stroke-width="2.5" x1="100.0" x2="100.0" y1="27.65" y2="277.65" /><line stroke="blue" stroke-linecap="square" stroke-width="2.5" x1="100.0" x2="0.0" y1="277.65" y2="277.65" /><line stroke="blue" stroke-linecap="square" stroke-width="2.5" x1="0.0" x2="-100.0" y1="277.65" y2="277.65" /><line stroke="blue" stroke-linecap="square" stroke-width="2.5" x1="-100.0" x2="-100.0" y1="277.65" y2="27.65" /><line stroke="blue" stroke-linecap="square" stroke-width="2.5" x1="-100.0" x2="0.0" y1="27.65" y2="27.65" /><polyline fill="none" marker-start="url(#id2)" points="0,0 -28.8675134595,-50.0 -300.867513459,-50.0" stroke="black" stroke-width="2.5" /><text fill="black" font-family="sans-serif" font-size="35" x="-287.267513459" y="-68.0">UC 305 x 305 x 97</text><text fill="black" font-family="sans-serif" font-size="35" x="-314.467513459" y="-17.0"> </text><text fill="black" font-family="sans-serif" font-size="30" x="-50.0" y="555.3">Top view (Sec A-A) </text><text fill="black" font-family="sans-serif" font-size="30" x="-50.0" y="595.3">(All dimensions are in "mm")</text></svg>